HIERARCHY
ROOT Hips
{
  OFFSET 265.287 66.7526 -254.649
  CHANNELS 6 Xposition Yposition Zposition Zrotation Xrotation Yrotation
  JOINT LeftUpLeg
  {
    OFFSET 8.64259 1.95398 -2.38835
    CHANNELS 3 Zrotation Xrotation Yrotation
    JOINT LeftLeg
    {
      OFFSET 43.7702 0 0
      CHANNELS 3 Zrotation Xrotation Yrotation
      JOINT LeftFoot
      {
        OFFSET 40.6238 0 0
        CHANNELS 3 Zrotation Xrotation Yrotation
        JOINT LeftToeBase
        {
          OFFSET 12.7242 0 0
          CHANNELS 3 Zrotation Xrotation Yrotation
          End Site
          {
            OFFSET 0 0 0
          }
        }
      }
    }
  }
  JOINT RightUpLeg
  {
    OFFSET -8.2249 1.95398 -2.59336
    CHANNELS 3 Zrotation Xrotation Yrotation
    JOINT RightLeg
    {
      OFFSET 43.5653 0 0
      CHANNELS 3 Zrotation Xrotation Yrotation
      JOINT RightFoot
      {
        OFFSET 40.6238 0 0
        CHANNELS 3 Zrotation Xrotation Yrotation
        JOINT RightToeBase
        {
          OFFSET 12.7242 0 0
          CHANNELS 3 Zrotation Xrotation Yrotation
          End Site
          {
            OFFSET 0 0 0
          }
        }
      }
    }
  }
  JOINT Spine
  {
    OFFSET 0.165834 0.87714 6.61349
    CHANNELS 3 Zrotation Xrotation Yrotation
    JOINT Spine1
    {
      OFFSET 7.38963 1.71661e-005 0
      CHANNELS 3 Zrotation Xrotation Yrotation
      JOINT Spine2
      {
        OFFSET 11.9445 1.14441e-005 0
        CHANNELS 3 Zrotation Xrotation Yrotation
        JOINT Spine3
        {
          OFFSET 14.7254 4.19617e-005 0
          CHANNELS 3 Zrotation Xrotation Yrotation
          JOINT Spine4
          {
            OFFSET 10.9679 0 0
            CHANNELS 3 Zrotation Xrotation Yrotation
            JOINT RightShoulder
            {
              OFFSET 2.46616 -1.6653 3.69651
              CHANNELS 3 Zrotation Xrotation Yrotation
              JOINT RightArm
              {
                OFFSET 13.0012 0 0
                CHANNELS 3 Zrotation Xrotation Yrotation
                JOINT RightForeArm
                {
                  OFFSET 28.7848 1.52588e-005 0
                  CHANNELS 3 Zrotation Xrotation Yrotation
                  JOINT RightHand
                  {
                    OFFSET 26.5688 1.52588e-005 0
                    CHANNELS 3 Zrotation Xrotation Yrotation
                    End Site
                    {
                      OFFSET 0 0 0
                    }
                  }
                }
              }
            }
            JOINT LeftShoulder
            {
              OFFSET 2.38034 -1.29275 -3.7523
              CHANNELS 3 Zrotation Xrotation Yrotation
              JOINT LeftArm
              {
                OFFSET 16.3182 6.10351e-005 0
                CHANNELS 3 Zrotation Xrotation Yrotation
                JOINT LeftForeArm
                {
                  OFFSET 27.0901 0 0
                  CHANNELS 3 Zrotation Xrotation Yrotation
                  JOINT LeftHand
                  {
                    OFFSET 24.5451 1.52588e-005 0
                    CHANNELS 3 Zrotation Xrotation Yrotation
                    End Site
                    {
                      OFFSET 0 0 0
                    }
                  }
                }
              }
            }
            JOINT Neck
            {
              OFFSET 5.0226 -0.0266342 0
              CHANNELS 3 Zrotation Xrotation Yrotation
              JOINT Head
              {
                OFFSET 6.69364 2.86102e-005 0
                CHANNELS 3 Zrotation Xrotation Yrotation
                End Site
                {
                  OFFSET 0 0 0
                }
              }
            }
          }
        }
      }
    }
  }
}
MOTION
Frames:	17
Frame Time:	0.0416667
-290.959 76.9524 285.001 98.2195 35.7097 76.1324 179.503 -11.2654 71.9156 -41.8588 8.80425 5.51087 115.535 17.2228 24.2735 -1.27308 7.94283 4.62124 132.907 -10.0071 23.7048 85.198 -6.00105 89.6406 -53.4409 23.6261 17.6499 108.183 -7.99672 6.99305 0.240369 3.72011 -89.4361 19.4295 0.771887 0.9884 7.75844 0.81464 0.953463 -14.7744 0.439159 1.17467 5.2382 0.439184 1.17466 118.249 -21.1476 -44.7051 81.7449 -52.6692 45.758 150.16 7.35418 -113.04 1.82711 -0.893633 -44.0738 -64.2957 -17.1512 129.095 -24.554 -27.0098 32.0643 0.0591676 69.4824 -0.000524175 18.8013 2.90832 11.574 -72.7892 -4.4556 8.53589 19.5646 -1.74615 -8.19499 
-291.263 76.8119 285.335 98.2391 35.7833 76.0565 179.51 -10.7676 71.8307 -42.6157 8.76714 5.56435 116.76 18.0192 24.4487 -3.11171 8.75899 4.03254 133.027 -10.4201 23.0628 84.4619 -5.77293 89.5853 -53.0804 23.6115 17.2388 108.195 -7.80358 7.28923 0.233802 3.7272 -89.4473 19.4155 0.752974 0.969557 7.74445 0.794938 0.935468 -14.7885 0.426802 1.151 5.22413 0.426804 1.15101 118.209 -21.024 -44.7142 81.8396 -52.8303 45.8868 149.825 7.26236 -112.92 1.85947 -0.901152 -43.9119 -64.1725 -17.4153 129.226 -24.3172 -26.7161 32.2831 -0.0218165 69.3248 -0.000520353 18.4431 2.84836 11.5306 -72.6788 -4.51142 8.62697 19.4859 -1.75841 -8.20488 
-292.128 76.4361 286.281 98.2952 35.9955 75.838 179.551 -9.25763 71.6028 -44.9033 8.57932 5.71556 120.18 20.0776 24.7667 -7.92435 11.0854 2.40027 133.387 -11.6592 21.3011 82.4029 -5.24525 89.4464 -51.8606 23.7049 16.0165 108.103 -7.21275 8.17474 0.21477 3.74784 -89.4794 19.3747 0.698541 0.915854 7.70362 0.738159 0.884211 -14.8295 0.390988 1.08344 5.18311 0.391024 1.08343 118.097 -20.6792 -44.736 82.0923 -53.2927 46.2464 148.871 6.99973 -112.586 1.97051 -0.928332 -43.4392 -63.8153 -18.1754 129.605 -23.6697 -25.8733 32.891 -0.347014 68.8462 0.110668 17.4259 2.68021 11.4091 -72.3582 -4.67271 8.89142 19.2623 -1.79619 -8.23914 
-293.48 75.915 287.755 98.3836 36.3318 75.4913 179.634 -6.79483 71.2602 -48.5259 8.11168 5.95237 125.169 22.7094 24.8676 -14.32 14.6732 0.0166339 133.969 -13.7665 18.7522 79.4577 -4.77369 89.2591 -49.4057 24.395 14.0649 107.553 -6.10779 9.79178 0.184227 3.78094 -89.5301 19.3092 0.611403 0.830914 7.63811 0.647388 0.803192 -14.8954 0.33344 0.976234 5.1173 0.333425 0.976244 117.931 -20.1537 -44.7613 82.4499 -54.024 46.7944 147.378 6.58684 -112.094 2.20214 -0.987717 -42.6663 -63.2377 -19.3823 130.209 -22.7206 -24.553 33.8115 0.444477 68.0576 -1.07894 15.8477 2.42509 11.2233 -71.8429 -4.93364 9.32446 18.9132 -1.86224 -8.30873 
-295.246 75.3412 289.673 98.4996 36.7769 75.0301 179.755 -3.49019 70.8004 -53.2001 7.28397 6.26573 131 25.2306 24.5751 -20.9446 19.1248 -2.76004 134.672 -16.7693 15.7908 76.6914 -4.76519 89.0223 -45.2153 27.0094 11.7176 105.871 -4.0926 12.7917 0.142768 3.82513 -89.5979 19.2216 0.493859 0.717533 7.55055 0.524979 0.695098 -14.9833 0.255389 0.832776 5.02938 0.255401 0.832779 117.725 -19.4859 -44.7816 82.8558 -54.9934 47.4873 145.424 6.04398 -111.506 2.61684 -1.09519 -41.5978 -62.4489 -20.9879 131.018 -21.5785 -22.8484 34.9749 4.32356 66.9227 -5.67187 13.8158 2.10676 10.9892 -71.1477 -5.29118 9.9302 18.457 -1.95971 -8.42736 
-297.351 74.8019 291.95 98.6393 37.3155 74.4674 179.893 0.430528 70.2219 -58.4303 6.13162 6.64926 136.892 27.1937 24.0014 -26.8864 23.9605 -5.64131 135.298 -20.5765 12.7177 76.5654 -5.59451 88.8146 -38.4379 35.3909 9.37761 101.389 -0.0836583 19.3309 0.0910399 3.87895 -89.6812 19.1148 0.347985 0.578131 7.44373 0.37307 0.562257 -15.0905 0.158131 0.655989 4.92215 0.158142 0.655978 117.492 -18.7111 -44.7896 83.2538 -56.1709 48.2808 143.085 5.39098 -110.88 3.28725 -1.26527 -40.2412 -61.4538 -22.9464 132.018 -20.3374 -20.8746 36.3226 8.67946 65.3303 -10.8535 11.4444 1.74907 10.7257 -70.2856 -5.74189 10.7153 17.9107 -2.09091 -8.60846 
-299.719 74.1982 294.507 98.7991 37.9323 73.816 -179.863 5.08782 69.5856 -64.4653 4.60138 7.09802 142.679 28.4137 23.301 -31.7146 28.7463 -8.46116 135.593 -24.9578 9.01467 81.6324 -6.95997 89.2131 -18.8431 61.9102 -6.86668 85.2077 5.67955 41.6803 0.0297751 3.94105 -89.7784 18.9913 0.176073 0.415327 7.32029 0.194174 0.407178 -15.2144 0.0431144 0.449037 4.79831 0.0430956 0.449036 117.246 -17.8632 -44.7794 83.5844 -57.5252 49.1253 140.443 4.64709 -110.272 4.29009 -1.50704 -38.6117 -60.2557 -25.2098 133.192 -19.0746 -18.7632 37.8023 12.8232 63.2946 -15.8614 8.85481 1.37489 10.456 -69.2681 -6.27931 11.6846 17.2904 -2.25672 -8.86368 
-304.166 70.4405 299.34 98.9754 38.6118 73.0893 -177.906 15.3498 67.9306 -79.2733 1.07828 7.60808 151.002 27.8876 22.6188 -35.351 33.1772 -11.1495 131.114 -32.7428 -3.3584 44.6665 1.67482 92.9544 90.6297 33.3722 -80.5535 -0.212938 -35.6259 102.987 -0.0398392 4.01 -89.8876 18.8539 -0.0185056 0.232428 7.1829 -0.00826237 0.233017 -15.3521 -0.0875235 0.216124 4.66054 -0.0875161 0.216121 116.997 -16.976 -44.7449 83.7795 -59.0207 49.9577 137.593 3.83081 -109.726 5.69778 -1.81984 -36.7361 -58.8609 -27.726 134.522 -17.8523 -16.6528 39.3614 16.4804 60.8879 -20.3749 6.17298 1.00457 10.2083 -68.1079 -6.89155 12.8356 16.612 -2.45645 -9.20148 
-313.803 61.7274 309.882 99.1653 39.3393 72.3007 -172.185 36.7823 63.5502 -102.583 -2.8651 8.18989 154.666 24.8623 24.7354 -37.9152 37.0975 -13.6887 167.432 -16.2214 19.261 -107.042 -2.545 35.2655 -69.9839 75.6052 150.604 -113.068 65.3308 -0.260627 -0.116173 4.08465 -90.006 18.7046 -0.230975 0.033713 7.03373 -0.229277 0.0438421 -15.5016 -0.23044 -0.0372662 4.51105 -0.230446 -0.0372589 116.758 -16.0818 -44.6803 83.7625 -60.6158 50.7 134.65 2.95847 -109.278 7.56044 -2.18913 -34.6501 -57.278 -30.4427 135.99 -16.7185 -14.6672 40.9446 19.5297 58.2125 -24.2391 3.51691 0.65327 10.0136 -66.8171 -7.56063 14.1534 15.891 -2.68848 -9.62558 
-315.224 64.0529 311.073 99.3665 40.1013 71.4636 -172.87 37.2696 62.6528 -100.395 -2.92267 8.80578 154.258 25.497 25.1755 -39.5936 40.4582 -16.0714 160.568 -9.15806 61.2858 -96.9346 -11.6634 -18.5387 -136.159 -46.6452 -153.38 50.9243 2.65062 -109.235 -0.196882 4.16413 -90.1304 18.5454 -0.454975 -0.175587 6.87455 -0.46226 -0.155394 -15.661 -0.38116 -0.304208 4.35166 -0.381176 -0.304208 116.538 -15.2103 -44.5802 83.4502 -62.2627 51.2598 131.745 2.04243 -108.942 9.88928 -2.58611 -32.3908 -55.5194 -33.3107 137.571 -15.7084 -12.8991 42.4948 21.9627 55.3721 -27.4273 0.984947 0.329866 9.90231 -65.4098 -8.26325 15.6084 15.1428 -2.95106 -10.1347 
-315.333 66.4176 311.236 99.5774 40.8851 70.5913 -174.315 36.0162 62.103 -97.882 -3.60243 9.46506 155.093 25.7215 25.4266 -40.5777 43.2664 -18.2854 152.984 -19.5673 60.0622 -17.152 62.895 -62.162 149.597 -1.85937 143.109 80.177 -32.1913 -49.7964 -0.27887 4.24768 -90.2567 18.3775 -0.682318 -0.389048 6.70667 -0.698778 -0.358636 -15.829 -0.533866 -0.576127 4.18366 -0.533845 -0.576126 116.348 -14.3895 -44.44 82.7515 -63.904 51.5284 129.021 1.09055 -108.72 12.6433 -2.96788 -29.9887 -53.6023 -36.2846 139.235 -14.8471 -11.4064 43.9525 23.8271 52.4555 -29.9809 -1.34545 0.0380502 9.90162 -63.9033 -8.97198 17.1543 14.384 -3.243 -10.7228 
-317.051 66.8869 313.189 99.7965 41.6791 69.6983 -174.264 38.6596 60.547 -98.9416 -4.42942 10.1562 154.827 25.1562 26.4398 -41.0391 45.5556 -20.3138 149.054 -27.5424 55.2386 5.00319 66.4582 -70.1802 118.822 -11.4547 149.862 77.6493 -12.7907 -16.9605 -0.358329 4.3348 -90.3802 18.202 -0.902958 -0.598747 6.53129 -0.928426 -0.558433 -16.0043 -0.681285 -0.842432 4.00829 -0.681262 -0.842452 116.196 -13.6471 -44.2576 81.5747 -65.4697 51.3873 126.634 0.108672 -108.592 15.717 -3.27875 -27.4583 -51.5529 -39.3242 140.947 -14.1503 -10.2131 45.2568 25.1884 49.5294 -31.9692 -3.41787 -0.222592 10.034 -62.3217 -9.65661 18.7255 13.6336 -3.56428 -11.3796 
-319.192 66.8263 315.483 100.023 42.4731 68.7992 -173.614 42.1165 58.5817 -100.408 -5.01108 10.8645 153.646 24.4633 27.7003 -41.118 47.3664 -22.1343 143.99 -34.7432 49.145 16.6071 69.9095 -69.0598 104.113 -22.1796 148.044 70.6965 -6.28917 -0.656724 -0.431063 4.42509 -90.4952 18.0199 -1.1057 -0.7955 6.34919 -1.13967 -0.746053 -16.1863 -0.815527 -1.09102 3.82633 -0.815539 -1.09102 116.09 -13.0112 -44.0347 79.8478 -66.8791 50.7302 124.727 -0.895097 -108.527 18.9452 -3.4573 -24.7923 -49.4029 -42.3981 142.663 -13.6209 -9.31022 46.3494 26.1128 46.6349 -33.4709 -5.19754 -0.454611 10.3141 -60.6949 -10.2875 20.2408 12.9138 -3.91626 -12.092 
-321.351 66.6223 317.724 100.256 43.2586 67.9087 -172.62 45.5557 56.3738 -101.574 -5.3166 11.5762 151.799 23.7535 29.0354 -40.9235 48.7339 -23.7183 137.07 -41.338 41.4759 21.953 73.7005 -61.1944 94.703 -31.5785 144.084 62.9953 -3.15357 9.41429 -0.492994 4.51843 -90.5959 17.8314 -1.27953 -0.969421 6.16081 -1.32096 -0.912165 -16.3744 -0.929042 -1.30913 3.6382 -0.929044 -1.30914 116.035 -12.5101 -43.7792 77.5411 -68.046 49.49 123.403 -1.90394 -108.489 22.1276 -3.44633 -21.9678 -47.1882 -45.4843 144.341 -13.2484 -8.66502 47.1774 26.6586 43.7928 -34.5615 -6.66595 -0.660557 10.7483 -59.057 -10.8394 21.6113 12.249 -4.30137 -12.8471 
-323.298 66.469 319.67 100.496 44.0287 67.0413 -171.542 48.4052 54.16 -101.941 -5.30586 12.2753 149.445 23.1454 30.3048 -40.5369 49.6803 -25.0333 125.548 -47.9125 29.464 20.1137 78.3493 -41.3171 88.1314 -42.2308 139.079 55.9827 -1.90155 15.9567 -0.540406 4.61503 -90.6763 17.6367 -1.41403 -1.11028 5.9661 -1.46152 -1.04698 -16.5689 -1.015 -1.4839 3.44379 -1.015 -1.4839 116.036 -12.1766 -43.5065 74.6952 -68.8817 47.6707 122.723 -2.88419 -108.445 25.049 -3.20175 -18.9592 -44.9483 -48.5682 145.936 -13.0107 -8.2282 47.6926 26.8706 41.0091 -35.3068 -7.81343 -0.84152 11.3354 -57.4443 -11.2928 22.7449 11.667 -4.7233 -13.6343 
-324.854 66.4793 321.122 100.743 44.778 66.2124 -170.616 50.3028 52.1488 -101.4 -5.05983 12.9442 146.881 22.7274 31.3998 -40.0127 50.2091 -26.041 110.92 -52.3419 14.806 3.17737 80.6442 -5.9511 80.486 -52.0311 130.437 49.8784 -1.58051 20.1678 -0.570249 4.71538 -90.7309 17.4348 -1.50035 -1.20826 5.76419 -1.55208 -1.14106 -16.7705 -1.06791 -1.60327 3.24219 -1.06791 -1.60327 116.098 -12.0504 -43.2436 71.4351 -69.3001 45.3673 122.698 -3.77773 -108.374 27.4995 -2.70487 -15.7538 -42.7257 -51.6418 147.404 -12.8771 -7.93797 47.8505 26.778 38.281 -35.7603 -8.63314 -0.995685 12.067 -55.892 -11.6358 23.5545 11.1993 -5.18736 -14.4497 
-325.866 66.7233 321.909 100.999 45.5031 65.437 -170.145 50.9556 50.6254 -99.8326 -4.6117 13.5596 144.286 22.6022 32.2517 -39.3773 50.2944 -26.6914 107.828 -53.2683 12.1463 0.645149 79.5364 -1.60614 71.2826 -51.8336 121.012 44.7201 -1.68311 22.656 -0.580428 4.82054 -90.7553 17.2239 -1.53246 -1.25531 5.55332 -1.58619 -1.18665 -16.9811 -1.08438 -1.65779 3.03156 -1.08437 -1.65779 116.221 -12.1832 -43.0317 67.9361 -69.2231 42.7428 123.294 -4.49939 -108.281 29.3076 -1.97496 -12.3672 -40.5642 -54.6993 148.705 -12.8127 -7.72397 47.61 26.3951 35.6028 -35.9633 -9.1151 -1.1172 12.9265 -54.4297 -11.866 23.9702 10.8809 -5.70089 -15.3013 
